<svg xmlns="http://www.w3.org/2000/svg" width="150" height="200" viewBox="0 0 150 200"><g fill-rule="evenodd" stroke-linejoin="round" stroke="#acf"><path vector-effect="non-scaling-stroke" fill="#fff" d="M1 21C1 11 11 1 21 1h79l49 49v129c0 10-10 20-20 20H21c-10 0-20-10-20-20V21z"/><path vector-effect="non-scaling-stroke" fill="#fbfcff" d="M100 1l49 49h-29c-10 0-20-10-20-20V1z"/></g><path fill="#478cfe" d="M25 69h100v5H25v-5zm0 19h100v5H25v-5zm0 19h100v5H25v-5zm0 19h100v5H25v-5zm0 19h100v5H25v-5zm0 19h50v5H25v-5z"/></svg>
